<svg width="512" height="512" viewBox="-2 -2 40 36" xmlns="http://www.w3.org/2000/svg">
  <path d="M34.7164 18.1023C34.2858 17.2304 33.7091 16.4381 33.0115 15.7592C32.6533 15.4344 32.2503 15.0936 31.8048 14.7423L32.3115 14.3857C33.083 13.9102 33.6876 12.9698 34.1676 11.5064C34.5024 10.4494 34.5933 9.33048 34.4327 8.2336C34.2858 7.20027 33.9448 6.20377 33.4276 5.29624C32.9552 4.45509 32.31 3.72248 31.5345 3.14605C30.7961 2.61315 29.9721 2.20939 29.0977 1.95208C28.1907 1.68389 27.2492 1.54951 26.303 1.55321H26.1784V0H22.6439V1.55321H15.8375L9.34661 13.2894H4.75682V17.4472H7.04242L0.265152 29.6879L0 30.1872H3.45227L10.5053 17.4419H16.5189V30.195H22.6439V31.7458H26.1678V30.1872C27.9019 30.1502 29.286 29.9732 30.2856 29.6589C31.3861 29.3245 32.3873 28.7269 33.2024 27.9181C33.8858 27.2541 34.4491 26.4775 34.8676 25.6226C35.3849 24.4322 35.6285 23.1416 35.5806 21.8453C35.5952 20.5469 35.2988 19.2638 34.7164 18.1023ZM31.8236 23.3272C31.6752 24.5845 31.2164 25.4668 30.4606 25.9502C29.7062 26.4533 28.853 26.791 27.9576 26.9407C26.9376 27.0791 25.9083 27.1365 24.8792 27.1125H19.9129V17.2728H26.0512C26.8654 17.2788 27.6788 17.3273 28.4879 17.4181C29.0957 17.5144 29.6627 17.7831 30.1212 18.1921C30.6839 18.6597 31.1367 19.245 31.447 19.9064C31.8579 20.8283 31.9827 21.9747 31.8236 23.3272ZM19.9129 13.2894V4.6966H25.7118C26.3974 4.70074 27.0808 4.77597 27.7508 4.92115C28.3691 5.04365 28.9607 5.27442 29.4981 5.60266C30.0195 5.97253 30.4279 6.47903 30.6782 7.06605C31.0215 7.8813 31.1397 8.77331 31.02 9.64945C30.9706 10.4517 30.6776 11.22 30.1795 11.8525C29.7109 12.3856 29.0933 12.7672 28.4057 12.9487C27.4992 13.1872 26.5644 13.3019 25.6269 13.2894H19.9129ZM12.8068 13.2894L16.5189 6.58002V13.2894H12.8068Z" fill="#000"/>
</svg>
