<svg width="176" height="32" viewBox="0 0 176 32" fill="none" xmlns="http://www.w3.org/2000/svg">
<g clip-path="url(#clip0_6799_10335)">
<path d="M34.7164 18.1023C34.2858 17.2304 33.7091 16.4381 33.0115 15.7592C32.6533 15.4344 32.2503 15.0936 31.8048 14.7423L32.3115 14.3857C33.083 13.9102 33.6876 12.9698 34.1676 11.5064C34.5024 10.4494 34.5933 9.33048 34.4327 8.2336C34.2858 7.20027 33.9448 6.20377 33.4276 5.29624C32.9552 4.45509 32.31 3.72248 31.5345 3.14605C30.7961 2.61315 29.9721 2.20939 29.0977 1.95208C28.1907 1.68389 27.2492 1.54951 26.303 1.55321H26.1784V0H22.6439V1.55321H15.8375L9.34661 13.2894H4.75682V17.4472H7.04242L0.265152 29.6879L0 30.1872H3.45227L10.5053 17.4419H16.5189V30.195H22.6439V31.7458H26.1678V30.1872C27.9019 30.1502 29.286 29.9732 30.2856 29.6589C31.3861 29.3245 32.3873 28.7269 33.2024 27.9181C33.8858 27.2541 34.4491 26.4775 34.8676 25.6226C35.3849 24.4322 35.6285 23.1416 35.5806 21.8453C35.5952 20.5469 35.2988 19.2638 34.7164 18.1023ZM31.8236 23.3272C31.6752 24.5845 31.2164 25.4668 30.4606 25.9502C29.7062 26.4533 28.853 26.791 27.9576 26.9407C26.9376 27.0791 25.9083 27.1365 24.8792 27.1125H19.9129V17.2728H26.0512C26.8654 17.2788 27.6788 17.3273 28.4879 17.4181C29.0957 17.5144 29.6627 17.7831 30.1212 18.1921C30.6839 18.6597 31.1367 19.245 31.447 19.9064C31.8579 20.8283 31.9827 21.9747 31.8236 23.3272ZM19.9129 13.2894V4.6966H25.7118C26.3974 4.70074 27.0808 4.77597 27.7508 4.92115C28.3691 5.04365 28.9607 5.27442 29.4981 5.60266C30.0195 5.97253 30.4279 6.47903 30.6782 7.06605C31.0215 7.8813 31.1397 8.77331 31.02 9.64945C30.9706 10.4517 30.6776 11.22 30.1795 11.8525C29.7109 12.3856 29.0933 12.7672 28.4057 12.9487C27.4992 13.1872 26.5644 13.3019 25.6269 13.2894H19.9129ZM12.8068 13.2894L16.5189 6.58002V13.2894H12.8068Z" fill="black"/>
<path d="M39.7697 5.43396H40.7394V13.8868H39.7697V5.43396Z" fill="black"/>
<path d="M47.9758 10.2038C47.9758 9.62416 47.8182 9.16931 47.5031 8.83926C47.1958 8.50921 46.7637 8.34416 46.2061 8.34416C45.5515 8.36025 45.0382 8.59373 44.6667 9.04454C44.2949 9.48732 44.1091 10.0629 44.1091 10.7713H43.794C43.794 10.0307 43.9031 9.4229 44.1212 8.94794C44.3473 8.46492 44.6667 8.10667 45.0788 7.87322C45.4909 7.63171 45.9797 7.51096 46.5455 7.51096C47.0464 7.51096 47.4706 7.61157 47.8182 7.81284C48.1737 8.01411 48.4443 8.29988 48.6303 8.6702C48.8243 9.03247 48.9212 9.4712 48.9212 9.98643V13.8868H47.9758V10.2038ZM52.7879 10.2038C52.7879 9.62416 52.6303 9.16931 52.3152 8.83926C52 8.50921 51.5676 8.34416 51.0182 8.34416C50.3637 8.36025 49.8503 8.59373 49.4788 9.04454C49.107 9.48732 48.9212 10.0629 48.9212 10.7713H48.594C48.594 10.0307 48.7031 9.4229 48.9212 8.94794C49.1473 8.46492 49.4667 8.10667 49.8788 7.87322C50.2909 7.63171 50.7837 7.51096 51.3576 7.51096C51.8503 7.51096 52.2746 7.61157 52.6303 7.81284C52.9858 8.01411 53.2564 8.29988 53.4424 8.6702C53.6364 9.03247 53.7334 9.4712 53.7334 9.98643V13.8868H52.7879V10.2038ZM43.1758 7.53511H44.1091V13.8868H43.1758V7.53511Z" fill="black"/>
<path d="M59.2964 7.51096C59.9024 7.51096 60.4358 7.6478 60.8964 7.92152C61.357 8.19524 61.7164 8.5736 61.9752 9.05662C62.2337 9.53964 62.363 10.0951 62.363 10.723C62.363 11.3429 62.2337 11.8944 61.9752 12.3774C61.7164 12.8604 61.357 13.2387 60.8964 13.5125C60.4436 13.7781 59.9143 13.911 59.3082 13.911C58.7264 13.911 58.2176 13.7821 57.7812 13.5245C57.3527 13.2589 57.0173 12.8886 56.7749 12.4136C56.5406 11.9306 56.4234 11.367 56.4234 10.723C56.4234 10.071 56.5406 9.50341 56.7749 9.02039C57.0173 8.53737 57.3527 8.16705 57.7812 7.90945C58.2176 7.64379 58.7224 7.51096 59.2964 7.51096ZM59.1267 8.27171C58.6821 8.27171 58.2861 8.38039 57.9385 8.59775C57.5912 8.80705 57.3206 9.09284 57.1267 9.45511C56.9327 9.81737 56.8355 10.236 56.8355 10.711C56.8355 11.1779 56.9327 11.5965 57.1267 11.9668C57.3206 12.3291 57.5912 12.6149 57.9385 12.8242C58.2861 13.0335 58.6821 13.1381 59.1267 13.1381C59.5709 13.1381 59.9627 13.0335 60.3021 12.8242C60.6497 12.6149 60.9206 12.3291 61.1146 11.9668C61.3085 11.5965 61.4052 11.1779 61.4052 10.711C61.4052 10.236 61.3085 9.81737 61.1146 9.45511C60.9206 9.09284 60.6497 8.80705 60.3021 8.59775C59.9627 8.38039 59.5709 8.27171 59.1267 8.27171ZM55.8903 7.53511H56.8355V16.2294H55.8903V7.53511Z" fill="black"/>
<path d="M67.2572 8.36831C66.7803 8.36025 66.3681 8.4609 66.0209 8.6702C65.6815 8.87147 65.4188 9.15724 65.233 9.52756C65.0469 9.88982 64.9542 10.3165 64.9542 10.8076L64.6269 10.7713C64.6269 10.079 64.7318 9.49133 64.9421 9.00831C65.1521 8.5253 65.4551 8.15497 65.8512 7.89737C66.2469 7.63977 66.7157 7.51096 67.2572 7.51096V8.36831ZM64.0209 7.53511H64.9663V13.8868H64.0209V7.53511Z" fill="black"/>
<path d="M71.1249 7.51096C71.7552 7.51096 72.3127 7.6478 72.7976 7.92152C73.2903 8.18718 73.6742 8.56152 73.9491 9.04454C74.2236 9.52756 74.3612 10.083 74.3612 10.711C74.3612 11.3389 74.2236 11.8944 73.9491 12.3774C73.6742 12.8604 73.2903 13.2387 72.7976 13.5125C72.3127 13.7781 71.7552 13.911 71.1249 13.911C70.4946 13.911 69.9327 13.7781 69.44 13.5125C68.9552 13.2387 68.5752 12.8604 68.3006 12.3774C68.0258 11.8944 67.8885 11.3389 67.8885 10.711C67.8885 10.083 68.0258 9.52756 68.3006 9.04454C68.5752 8.56152 68.9552 8.18718 69.44 7.92152C69.9327 7.6478 70.4946 7.51096 71.1249 7.51096ZM71.1249 8.29586C70.6803 8.29586 70.2842 8.40053 69.937 8.60982C69.5894 8.81109 69.3188 9.09284 69.1249 9.45511C68.9309 9.81737 68.8339 10.236 68.8339 10.711C68.8339 11.194 68.9309 11.6206 69.1249 11.991C69.3188 12.3532 69.5894 12.639 69.937 12.8483C70.2842 13.0496 70.6803 13.1502 71.1249 13.1502C71.5773 13.1502 71.9733 13.0496 72.3127 12.8483C72.66 12.639 72.9309 12.3532 73.1249 11.991C73.3188 11.6206 73.4158 11.194 73.4158 10.711C73.4158 10.236 73.3188 9.81737 73.1249 9.45511C72.9309 9.09284 72.66 8.81109 72.3127 8.60982C71.9733 8.40053 71.5773 8.29586 71.1249 8.29586Z" fill="black"/>
<path d="M74.7315 7.5351H75.7254L77.7618 12.9932L79.7861 7.5351H80.7436L78.2345 13.8868H77.2527L74.7315 7.5351Z" fill="black"/>
<path d="M86.3127 10.3366C86.2967 9.90996 86.1954 9.54365 86.0097 9.23775C85.8318 8.92379 85.5854 8.68228 85.2703 8.51322C84.9633 8.34416 84.5997 8.25964 84.1794 8.25964C83.7348 8.25964 83.343 8.36025 83.0036 8.56152C82.6724 8.76279 82.4097 9.04454 82.2158 9.40681C82.0218 9.76907 81.9248 10.1917 81.9248 10.6747C81.9248 11.1738 82.0218 11.6126 82.2158 11.991C82.4179 12.3613 82.6967 12.6511 83.0521 12.8604C83.4076 13.0697 83.8118 13.1744 84.2642 13.1744C85.0724 13.1744 85.7309 12.9006 86.24 12.3532L86.7612 12.8725C86.4542 13.2025 86.0824 13.4601 85.646 13.6453C85.2097 13.8224 84.7288 13.911 84.2036 13.911C83.5733 13.911 83.0157 13.7781 82.5309 13.5125C82.0542 13.2387 81.6824 12.8604 81.4157 12.3774C81.1491 11.8944 81.0157 11.3389 81.0157 10.711C81.0157 10.083 81.1491 9.53157 81.4157 9.05662C81.6824 8.5736 82.0542 8.19926 82.5309 7.9336C83.0157 7.65988 83.5651 7.51902 84.1794 7.51096C84.8664 7.51096 85.4361 7.65988 85.8885 7.95775C86.3409 8.24756 86.6724 8.65813 86.8824 9.18945C87.1006 9.71271 87.1894 10.3286 87.1491 11.037H81.7551V10.3366H86.3127Z" fill="black"/>
<path d="M93.5842 10.2038C93.5842 9.62416 93.4264 9.16931 93.1112 8.83926C92.8042 8.50921 92.3718 8.34416 91.8142 8.34416C91.1597 8.36025 90.6467 8.59373 90.2751 9.04454C89.9033 9.48732 89.7176 10.0629 89.7176 10.7713H89.4021C89.4021 10.0307 89.5115 9.4229 89.7297 8.94794C89.9558 8.46492 90.2748 8.10667 90.687 7.87322C91.0991 7.63171 91.5882 7.51096 92.1539 7.51096C92.6548 7.51096 93.0791 7.61157 93.4264 7.81284C93.7821 8.01411 94.0527 8.29988 94.2385 8.6702C94.4324 9.03247 94.5297 9.4712 94.5297 9.98643V13.8868H93.5842V10.2038ZM98.3961 10.2038C98.3961 9.62416 98.2385 9.16931 97.9233 8.83926C97.6082 8.50921 97.1761 8.34416 96.6264 8.34416C95.9718 8.36025 95.4588 8.59373 95.0873 9.04454C94.7154 9.48732 94.5297 10.0629 94.5297 10.7713H94.2021C94.2021 10.0307 94.3115 9.4229 94.5297 8.94794C94.7558 8.46492 95.0751 8.10667 95.4873 7.87322C95.8994 7.63171 96.3921 7.51096 96.9658 7.51096C97.4588 7.51096 97.883 7.61157 98.2388 7.81284C98.5942 8.01411 98.8648 8.29988 99.0506 8.6702C99.2445 9.03247 99.3418 9.4712 99.3418 9.98643V13.8868H98.3961V10.2038ZM88.7839 7.53511H89.7176V13.8868H88.7839V7.53511Z" fill="black"/>
<path d="M106.092 10.3366C106.076 9.90996 105.975 9.54365 105.789 9.23775C105.612 8.92379 105.365 8.68228 105.05 8.51322C104.743 8.34416 104.379 8.25964 103.959 8.25964C103.515 8.25964 103.123 8.36025 102.783 8.56152C102.452 8.76279 102.189 9.04454 101.995 9.40681C101.802 9.76907 101.705 10.1917 101.705 10.6747C101.705 11.1738 101.802 11.6126 101.995 11.991C102.198 12.3613 102.476 12.6511 102.832 12.8604C103.188 13.0697 103.592 13.1744 104.044 13.1744C104.852 13.1744 105.511 12.9006 106.02 12.3532L106.541 12.8725C106.234 13.2025 105.862 13.4601 105.426 13.6453C104.989 13.8224 104.509 13.911 103.983 13.911C103.353 13.911 102.795 13.7781 102.311 13.5125C101.834 13.2387 101.462 12.8604 101.195 12.3774C100.929 11.8944 100.795 11.3389 100.795 10.711C100.795 10.083 100.929 9.53157 101.195 9.05662C101.462 8.5736 101.834 8.19926 102.311 7.9336C102.795 7.65988 103.345 7.51902 103.959 7.51096C104.646 7.51096 105.216 7.65988 105.668 7.95775C106.121 8.24756 106.452 8.65813 106.662 9.18945C106.88 9.71271 106.969 10.3286 106.929 11.037H101.535V10.3366H106.092Z" fill="black"/>
<path d="M113.461 10.2038C113.461 9.62416 113.299 9.17336 112.976 8.85133C112.661 8.52128 112.221 8.35624 111.655 8.35624C110.976 8.3643 110.447 8.59373 110.067 9.04454C109.687 9.48732 109.497 10.0629 109.497 10.7713H109.17C109.17 10.0307 109.283 9.4229 109.509 8.94794C109.736 8.46492 110.059 8.10667 110.479 7.87322C110.907 7.63171 111.409 7.51096 111.982 7.51096C112.491 7.51096 112.928 7.61157 113.291 7.81284C113.655 8.01411 113.93 8.29988 114.115 8.6702C114.309 9.03247 114.406 9.4712 114.406 9.98643V13.8868H113.461V10.2038ZM108.564 7.53511H109.509V13.8868H108.564V7.53511Z" fill="black"/>
<path d="M117.682 11.9789C117.682 12.3814 117.755 12.6712 117.9 12.8483C118.046 13.0174 118.256 13.1019 118.531 13.1019C118.692 13.0938 118.858 13.0657 119.028 13.0173C119.197 12.961 119.371 12.8765 119.549 12.7638L119.815 13.4521C119.597 13.597 119.363 13.7137 119.112 13.8023C118.87 13.8828 118.624 13.923 118.373 13.923C118.058 13.923 117.779 13.8626 117.537 13.7419C117.294 13.6131 117.1 13.4158 116.955 13.1502C116.818 12.8845 116.749 12.5424 116.749 12.1238V6.08603H117.682V11.9789ZM115.828 7.72829H119.706V8.42867H115.828V7.72829Z" fill="black"/>
<path d="M42.9576 20.2264C44.0082 20.2264 44.8203 20.476 45.394 20.9751C45.9758 21.4662 46.2667 22.1585 46.2667 23.0521C46.2667 23.9779 45.9758 24.6983 45.394 25.2136C44.8203 25.7207 44.0082 25.9743 42.9576 25.9743H40.3152L40.7394 25.5517V28.6792H39.7697V20.2264H42.9576ZM42.9212 25.1411C43.6888 25.1411 44.2827 24.9681 44.703 24.6219C45.1234 24.2677 45.3334 23.7524 45.3334 23.0762C45.3334 22.4161 45.1234 21.917 44.703 21.5789C44.2827 21.2408 43.6888 21.0717 42.9212 21.0717H40.3152L40.7394 20.6491V25.5638L40.3152 25.1411H42.9212Z" fill="black"/>
<path d="M50.9812 23.1608C50.5043 23.1527 50.0921 23.2534 49.7449 23.4627C49.4055 23.6639 49.1428 23.9497 48.957 24.32C48.7709 24.6823 48.6782 25.1089 48.6782 25.6L48.3509 25.5638C48.3509 24.8715 48.4558 24.2838 48.6661 23.8008C48.8761 23.3177 49.1791 22.9474 49.5752 22.6898C49.9709 22.4322 50.4397 22.3034 50.9812 22.3034V23.1608ZM47.7449 22.3276H48.6903V28.6793H47.7449V22.3276Z" fill="black"/>
<path d="M54.8488 22.3034C55.4791 22.3034 56.0367 22.4403 56.5215 22.714C57.0142 22.9796 57.3982 23.354 57.673 23.837C57.9476 24.32 58.0852 24.8755 58.0852 25.5034C58.0852 26.1313 57.9476 26.6868 57.673 27.1698C57.3982 27.6528 57.0142 28.0312 56.5215 28.3049C56.0367 28.5706 55.4791 28.7034 54.8488 28.7034C54.2185 28.7034 53.6567 28.5706 53.1639 28.3049C52.6791 28.0312 52.2991 27.6528 52.0245 27.1698C51.7497 26.6868 51.6124 26.1313 51.6124 25.5034C51.6124 24.8755 51.7497 24.32 52.0245 23.837C52.2991 23.354 52.6791 22.9796 53.1639 22.714C53.6567 22.4403 54.2185 22.3034 54.8488 22.3034ZM54.8488 23.0883C54.4042 23.0883 54.0082 23.193 53.6609 23.4023C53.3133 23.6035 53.0427 23.8853 52.8488 24.2476C52.6549 24.6098 52.5579 25.0284 52.5579 25.5034C52.5579 25.9864 52.6549 26.4131 52.8488 26.7834C53.0427 27.1457 53.3133 27.4315 53.6609 27.6408C54.0082 27.842 54.4042 27.9427 54.8488 27.9427C55.3012 27.9427 55.6973 27.842 56.0367 27.6408C56.3839 27.4315 56.6549 27.1457 56.8488 26.7834C57.0427 26.4131 57.1397 25.9864 57.1397 25.5034C57.1397 25.0284 57.0427 24.6098 56.8488 24.2476C56.6549 23.8853 56.3839 23.6035 56.0367 23.4023C55.6973 23.193 55.3012 23.0883 54.8488 23.0883Z" fill="black"/>
<path d="M63.2142 22.3034C63.8203 22.3034 64.3536 22.4403 64.8142 22.714C65.2748 22.9877 65.6345 23.366 65.893 23.8491C66.1518 24.3321 66.2809 24.8876 66.2809 25.5155C66.2809 26.1353 66.1518 26.6868 65.893 27.1698C65.6345 27.6528 65.2748 28.0312 64.8142 28.3049C64.3618 28.5706 63.8324 28.7034 63.2263 28.7034C62.6445 28.7034 62.1354 28.5746 61.6991 28.317C61.2709 28.0513 60.9354 27.681 60.693 27.206C60.4588 26.723 60.3415 26.1595 60.3415 25.5155C60.3415 24.8634 60.4588 24.2959 60.693 23.8128C60.9354 23.3298 61.2709 22.9595 61.6991 22.7019C62.1354 22.4362 62.6406 22.3034 63.2142 22.3034ZM63.0445 23.0642C62.6003 23.0642 62.2042 23.1728 61.8566 23.3902C61.5094 23.5995 61.2385 23.8853 61.0445 24.2476C60.8506 24.6098 60.7536 25.0284 60.7536 25.5034C60.7536 25.9703 60.8506 26.3889 61.0445 26.7593C61.2385 27.1215 61.5094 27.4073 61.8566 27.6166C62.2042 27.8259 62.6003 27.9306 63.0445 27.9306C63.4891 27.9306 63.8809 27.8259 64.2203 27.6166C64.5679 27.4073 64.8385 27.1215 65.0324 26.7593C65.2263 26.3889 65.3233 25.9703 65.3233 25.5034C65.3233 25.0284 65.2263 24.6098 65.0324 24.2476C64.8385 23.8853 64.5679 23.5995 64.2203 23.3902C63.8809 23.1728 63.4891 23.0642 63.0445 23.0642ZM59.8082 22.3276H60.7536V31.0219H59.8082V22.3276Z" fill="black"/>
<path d="M70.5327 22.3034C71.1631 22.3034 71.7206 22.4403 72.2055 22.714C72.6985 22.9796 73.0824 23.354 73.357 23.837C73.6318 24.32 73.7691 24.8755 73.7691 25.5034C73.7691 26.1313 73.6318 26.6868 73.357 27.1698C73.0824 27.6528 72.6985 28.0312 72.2055 28.3049C71.7206 28.5706 71.1631 28.7034 70.5327 28.7034C69.9024 28.7034 69.3409 28.5706 68.8479 28.3049C68.3631 28.0312 67.9834 27.6528 67.7085 27.1698C67.434 26.6868 67.2964 26.1313 67.2964 25.5034C67.2964 24.8755 67.434 24.32 67.7085 23.837C67.9834 23.354 68.3631 22.9796 68.8479 22.714C69.3409 22.4403 69.9024 22.3034 70.5327 22.3034ZM70.5327 23.0883C70.0885 23.0883 69.6924 23.193 69.3449 23.4023C68.9976 23.6035 68.7267 23.8853 68.5328 24.2476C68.3388 24.6098 68.2418 25.0284 68.2418 25.5034C68.2418 25.9864 68.3388 26.4131 68.5328 26.7834C68.7267 27.1457 68.9976 27.4315 69.3449 27.6408C69.6924 27.842 70.0885 27.9427 70.5327 27.9427C70.9855 27.9427 71.3812 27.842 71.7206 27.6408C72.0682 27.4315 72.3388 27.1457 72.5328 26.7834C72.7267 26.4131 72.8237 25.9864 72.8237 25.5034C72.8237 25.0284 72.7267 24.6098 72.5328 24.2476C72.3388 23.8853 72.0682 23.6035 71.7206 23.4023C71.3812 23.193 70.9855 23.0883 70.5327 23.0883Z" fill="black"/>
<path d="M78.8015 23.5351C78.5509 23.3821 78.2721 23.2614 77.9651 23.1728C77.6582 23.0843 77.3591 23.04 77.0682 23.04C76.7127 23.04 76.4136 23.1125 76.1712 23.2574C75.9288 23.3942 75.8076 23.6196 75.8076 23.9336C75.8076 24.1751 75.8924 24.3683 76.0621 24.5132C76.24 24.6501 76.4621 24.7668 76.7288 24.8634C77.0036 24.9519 77.2903 25.0405 77.5894 25.1291C77.8885 25.2176 78.1751 25.3303 78.45 25.4672C78.7248 25.596 78.9469 25.7771 79.1166 26.0106C79.2863 26.244 79.3712 26.5499 79.3712 26.9283C79.3712 27.3389 79.2582 27.677 79.0318 27.9426C78.8136 28.2002 78.5266 28.3935 78.1712 28.5223C77.8236 28.643 77.4439 28.7034 77.0318 28.7034C76.5794 28.7034 76.1348 28.6269 75.6985 28.474C75.2621 28.321 74.8903 28.1036 74.5833 27.8219L74.9469 27.1819C75.2218 27.4315 75.5491 27.6287 75.9288 27.7736C76.3166 27.9104 76.6963 27.9789 77.0682 27.9789C77.3188 27.9789 77.5448 27.9467 77.747 27.8823C77.957 27.8098 78.1227 27.7051 78.2439 27.5683C78.3733 27.4234 78.4379 27.2423 78.4379 27.0249C78.446 26.7592 78.3651 26.554 78.1954 26.4091C78.0339 26.2561 77.8157 26.1313 77.5409 26.0347C77.2742 25.9381 76.9873 25.8455 76.6803 25.757C76.3812 25.6684 76.0945 25.5598 75.8197 25.4309C75.553 25.2941 75.3348 25.117 75.1651 24.8996C74.9954 24.6742 74.9106 24.3723 74.9106 23.994C74.9106 23.5995 75.0157 23.2775 75.2257 23.0279C75.4357 22.7784 75.7066 22.5932 76.0379 22.4725C76.3773 22.3517 76.7409 22.2913 77.1288 22.2913C77.5085 22.2913 77.8763 22.3436 78.2318 22.4483C78.5873 22.5449 78.8985 22.6818 79.1651 22.8589L78.8015 23.5351Z" fill="black"/>
<path d="M82.8879 25.6966C82.3545 25.6966 81.9506 25.7852 81.6758 25.9623C81.4009 26.1394 81.2636 26.4091 81.2636 26.7713C81.2636 27.1336 81.393 27.4274 81.6515 27.6528C81.9182 27.8702 82.2779 27.9789 82.7303 27.9789C83.1021 27.9789 83.4373 27.9185 83.7364 27.7977C84.0354 27.677 84.2818 27.5039 84.4758 27.2785C84.6779 27.0531 84.8151 26.7794 84.8879 26.4574L85.1303 27.2181C84.9039 27.7253 84.5688 28.1036 84.1242 28.3532C83.6797 28.5947 83.1545 28.7155 82.5485 28.7155C82.1121 28.7155 81.7282 28.631 81.397 28.4619C81.0736 28.2928 80.8233 28.0634 80.6455 27.7736C80.4676 27.4838 80.3788 27.1577 80.3788 26.7955C80.3788 26.2481 80.5888 25.8134 81.0091 25.4913C81.4294 25.1693 82.0151 25.0043 82.7667 24.9962H85.0333V25.6966H82.8879ZM84.8636 24.5736C84.8636 24.0906 84.7182 23.7162 84.4273 23.4506C84.1445 23.1849 83.7203 23.0521 83.1545 23.0521C82.7991 23.0521 82.4555 23.1165 82.1242 23.2453C81.793 23.3741 81.4615 23.5552 81.1303 23.7887L80.7303 23.1728C81.0051 22.9877 81.2718 22.8307 81.5303 22.7019C81.7888 22.5731 82.0636 22.4765 82.3545 22.4121C82.6454 22.3396 82.9727 22.3034 83.3364 22.3034C84.1282 22.3034 84.7342 22.5006 85.1545 22.8951C85.5748 23.2815 85.7888 23.8128 85.797 24.4891L85.8091 28.6793H84.8879L84.8636 24.5736Z" fill="black"/>
<path d="M87.9806 19.7192H88.926V28.6792H87.9806V19.7192Z" fill="black"/>
</g>
<defs>
<clipPath id="clip0_6799_10335">
<rect width="120" height="32" fill="white"/>
</clipPath>
</defs>
</svg>
